<svg 
 xmlns="http://www.w3.org/2000/svg"
 xmlns:xlink="http://www.w3.org/1999/xlink"
 width="1.058cm" height="0.952cm">
<path fill-rule="evenodd"  fill="rgb(255, 255, 255)"
 d="M14.558,0.000 C13.486,0.000 12.607,0.735 12.408,1.739 L12.352,1.739 L5.295,9.580 L8.824,9.580 L13.705,4.163 C13.968,4.273 14.257,4.355 14.558,4.355 C14.865,4.355 15.148,4.273 15.416,4.163 L20.292,9.580 L23.827,9.580 L16.764,1.739 L16.708,1.739 C16.515,0.735 15.636,0.000 14.558,0.000 L14.558,0.000 ZM1.767,11.320 C0.788,11.320 0.000,12.099 0.000,13.065 L0.000,13.935 C0.000,14.855 0.715,15.578 1.629,15.650 L4.412,25.257 C5.295,27.000 6.179,27.000 7.057,27.000 L22.943,27.000 C23.827,27.000 24.704,27.000 25.588,25.257 L28.376,15.650 C29.285,15.578 30.000,14.855 30.000,13.935 L30.000,13.065 C30.000,12.099 29.216,11.320 28.238,11.320 L1.767,11.320 L1.767,11.320 ZM6.730,15.675 L7.169,15.675 C8.148,15.675 9.113,16.403 9.319,17.308 L10.560,22.727 C10.767,23.637 10.134,24.385 9.156,24.385 L8.711,24.385 C7.734,24.385 6.769,23.637 6.562,22.727 L5.321,17.308 C5.115,16.403 5.752,15.675 6.730,15.675 L6.730,15.675 ZM15.003,15.675 C15.980,15.675 16.764,16.454 16.764,17.419 L16.764,22.645 C16.764,23.611 15.980,24.385 15.003,24.385 C14.024,24.385 13.236,23.611 13.236,22.645 L13.236,17.419 C13.236,16.454 14.024,15.675 15.003,15.675 L15.003,15.675 ZM22.831,15.675 L23.275,15.675 C24.253,15.675 24.885,16.403 24.679,17.308 L23.438,22.727 C23.231,23.637 22.267,24.385 21.288,24.385 L20.844,24.385 C19.867,24.385 19.234,23.637 19.440,22.727 L20.681,17.308 C20.888,16.403 21.852,15.675 22.831,15.675 L22.831,15.675 Z"/>
</svg>